<mxfile host="65bd71144e">
    <diagram name="UDR" id="_7mu0K1kzFnNQefQ5kPF">
        <mxGraphModel dx="2825" dy="1056" grid="0" gridSize="10" guides="0" tooltips="0" connect="1" arrows="1" fold="1" page="0" pageScale="1" pageWidth="1100" pageHeight="850" background="none" math="0" shadow="0">
            <root>
                <mxCell id="pV_txBsgiGjlM6UxXxGn-0"/>
                <mxCell id="pV_txBsgiGjlM6UxXxGn-1" parent="pV_txBsgiGjlM6UxXxGn-0"/>
                <mxCell id="pV_txBsgiGjlM6UxXxGn-3" value="Spoke2&lt;br&gt;&lt;b style=&quot;border-color: var(--border-color);&quot;&gt;spk2-lxvm&lt;br style=&quot;border-color: var(--border-color);&quot;&gt;10.0.2.4&lt;/b&gt;" style="rounded=1;whiteSpace=wrap;html=1;fillColor=#9BE0BA;" parent="pV_txBsgiGjlM6UxXxGn-1" vertex="1">
                    <mxGeometry x="-627" y="120" width="116" height="90" as="geometry"/>
                </mxCell>
                <mxCell id="pV_txBsgiGjlM6UxXxGn-5" value="Spoke1&lt;br&gt;&lt;b&gt;spk1-lxvm&lt;br&gt;10.0.1.4&lt;/b&gt;" style="rounded=1;whiteSpace=wrap;html=1;fillColor=#9BE0BA;" parent="pV_txBsgiGjlM6UxXxGn-1" vertex="1">
                    <mxGeometry x="-776" y="123" width="113" height="90" as="geometry"/>
                </mxCell>
                <mxCell id="pV_txBsgiGjlM6UxXxGn-6" value="&lt;b&gt;&lt;br&gt;&lt;br&gt;&lt;/b&gt;" style="rounded=1;whiteSpace=wrap;html=1;verticalAlign=top;fillColor=#99C9EF;arcSize=11;" parent="pV_txBsgiGjlM6UxXxGn-1" vertex="1">
                    <mxGeometry x="-765" y="280" width="250" height="240" as="geometry"/>
                </mxCell>
                <mxCell id="pV_txBsgiGjlM6UxXxGn-7" style="rounded=0;orthogonalLoop=1;jettySize=auto;html=1;exitX=0;exitY=0.5;exitDx=0;exitDy=0;dashed=1;strokeColor=#009900;endArrow=none;endFill=0;fontColor=#004F00;startArrow=none;entryX=0.5;entryY=1;entryDx=0;entryDy=0;strokeWidth=2;" parent="pV_txBsgiGjlM6UxXxGn-1" source="pV_txBsgiGjlM6UxXxGn-43" target="pV_txBsgiGjlM6UxXxGn-52" edge="1">
                    <mxGeometry relative="1" as="geometry">
                        <mxPoint x="-715" y="404" as="targetPoint"/>
                    </mxGeometry>
                </mxCell>
                <mxCell id="pV_txBsgiGjlM6UxXxGn-8" value="SDW1&lt;br&gt;" style="whiteSpace=wrap;html=1;aspect=fixed;fillColor=#F9C0A0;direction=south;" parent="pV_txBsgiGjlM6UxXxGn-1" vertex="1">
                    <mxGeometry x="-742" y="453" width="51" height="51" as="geometry"/>
                </mxCell>
                <mxCell id="pV_txBsgiGjlM6UxXxGn-9" value="DC1&lt;br&gt;&lt;b&gt;ASN 65128&lt;br&gt;VM 10.128.0.4&lt;br&gt;&lt;/b&gt;" style="rounded=0;whiteSpace=wrap;html=1;fillColor=#f5f5f5;strokeColor=#666666;gradientColor=#b3b3b3;" parent="pV_txBsgiGjlM6UxXxGn-1" vertex="1">
                    <mxGeometry x="-639" y="693" width="120" height="80" as="geometry"/>
                </mxCell>
                <mxCell id="pV_txBsgiGjlM6UxXxGn-11" value="&lt;b&gt;Branch1&lt;br&gt;ASN 65010&lt;br&gt;VM 10.64.0.36&lt;br&gt;&lt;/b&gt;" style="rounded=0;whiteSpace=wrap;html=1;fillColor=#9BE0BA;" parent="pV_txBsgiGjlM6UxXxGn-1" vertex="1">
                    <mxGeometry x="-875" y="691" width="100" height="83" as="geometry"/>
                </mxCell>
                <mxCell id="pV_txBsgiGjlM6UxXxGn-12" style="rounded=1;orthogonalLoop=1;jettySize=auto;html=1;exitX=0.5;exitY=1;exitDx=0;exitDy=0;entryX=0.715;entryY=0.001;entryDx=0;entryDy=0;startArrow=none;startFill=0;endArrow=none;endFill=0;entryPerimeter=0;strokeColor=#007FFF;strokeWidth=1.5;" parent="pV_txBsgiGjlM6UxXxGn-1" source="pV_txBsgiGjlM6UxXxGn-3" target="pV_txBsgiGjlM6UxXxGn-6" edge="1">
                    <mxGeometry relative="1" as="geometry"/>
                </mxCell>
                <mxCell id="pV_txBsgiGjlM6UxXxGn-13" style="rounded=1;orthogonalLoop=1;jettySize=auto;html=1;exitX=0.5;exitY=1;exitDx=0;exitDy=0;entryX=0.25;entryY=0;entryDx=0;entryDy=0;startArrow=none;startFill=0;endArrow=none;endFill=0;strokeColor=#007FFF;strokeWidth=1.5;" parent="pV_txBsgiGjlM6UxXxGn-1" source="pV_txBsgiGjlM6UxXxGn-5" target="pV_txBsgiGjlM6UxXxGn-6" edge="1">
                    <mxGeometry relative="1" as="geometry"/>
                </mxCell>
                <mxCell id="pV_txBsgiGjlM6UxXxGn-14" style="rounded=0;orthogonalLoop=1;jettySize=auto;html=1;exitX=0.5;exitY=0;exitDx=0;exitDy=0;startArrow=oval;startFill=1;endArrow=oval;endFill=1;strokeColor=#FF0000;entryX=1;entryY=0.5;entryDx=0;entryDy=0;" parent="pV_txBsgiGjlM6UxXxGn-1" source="pV_txBsgiGjlM6UxXxGn-11" target="pV_txBsgiGjlM6UxXxGn-8" edge="1">
                    <mxGeometry relative="1" as="geometry">
                        <mxPoint x="-725" y="500" as="targetPoint"/>
                    </mxGeometry>
                </mxCell>
                <mxCell id="pV_txBsgiGjlM6UxXxGn-16" value="ERGW1&lt;br&gt;&lt;b&gt;ASN 65515&lt;/b&gt;" style="whiteSpace=wrap;html=1;aspect=fixed;fillStyle=auto;fillColor=#9FB0FA;" parent="pV_txBsgiGjlM6UxXxGn-1" vertex="1">
                    <mxGeometry x="-605" y="489" width="50" height="50" as="geometry"/>
                </mxCell>
                <mxCell id="pV_txBsgiGjlM6UxXxGn-17" value="10.0.1.0/24" style="text;html=1;strokeColor=none;fillColor=none;align=center;verticalAlign=middle;whiteSpace=wrap;rounded=0;fontStyle=1" parent="pV_txBsgiGjlM6UxXxGn-1" vertex="1">
                    <mxGeometry x="-755" y="98" width="80" height="20" as="geometry"/>
                </mxCell>
                <mxCell id="pV_txBsgiGjlM6UxXxGn-18" value="10.0.2.0/24" style="text;html=1;strokeColor=none;fillColor=none;align=center;verticalAlign=middle;whiteSpace=wrap;rounded=0;fontStyle=1" parent="pV_txBsgiGjlM6UxXxGn-1" vertex="1">
                    <mxGeometry x="-600" y="101" width="80" height="20" as="geometry"/>
                </mxCell>
                <mxCell id="pV_txBsgiGjlM6UxXxGn-19" value="&lt;b&gt;10.64.0.0/24&lt;/b&gt;" style="text;html=1;strokeColor=none;fillColor=none;align=center;verticalAlign=middle;whiteSpace=wrap;rounded=0;" parent="pV_txBsgiGjlM6UxXxGn-1" vertex="1">
                    <mxGeometry x="-860" y="774" width="80" height="20" as="geometry"/>
                </mxCell>
                <mxCell id="pV_txBsgiGjlM6UxXxGn-21" value="HUB&lt;br&gt;10.0.0.0/24" style="text;html=1;strokeColor=none;fillColor=none;align=center;verticalAlign=middle;whiteSpace=wrap;rounded=0;fontStyle=1" parent="pV_txBsgiGjlM6UxXxGn-1" vertex="1">
                    <mxGeometry x="-683" y="256" width="80" height="20" as="geometry"/>
                </mxCell>
                <mxCell id="pV_txBsgiGjlM6UxXxGn-22" value="" style="edgeStyle=none;html=1;" parent="pV_txBsgiGjlM6UxXxGn-1" source="pV_txBsgiGjlM6UxXxGn-23" target="pV_txBsgiGjlM6UxXxGn-9" edge="1">
                    <mxGeometry relative="1" as="geometry"/>
                </mxCell>
                <mxCell id="pV_txBsgiGjlM6UxXxGn-23" value="&lt;b&gt;10.128.0.0/24&lt;/b&gt;" style="text;html=1;strokeColor=none;fillColor=none;align=center;verticalAlign=middle;whiteSpace=wrap;rounded=0;" parent="pV_txBsgiGjlM6UxXxGn-1" vertex="1">
                    <mxGeometry x="-610" y="773" width="80" height="20" as="geometry"/>
                </mxCell>
                <mxCell id="pV_txBsgiGjlM6UxXxGn-24" style="rounded=0;orthogonalLoop=1;jettySize=auto;html=1;entryX=0.5;entryY=1;entryDx=0;entryDy=0;startArrow=none;startFill=0;endArrow=none;endFill=0;" parent="pV_txBsgiGjlM6UxXxGn-1" source="pV_txBsgiGjlM6UxXxGn-48" target="pV_txBsgiGjlM6UxXxGn-16" edge="1">
                    <mxGeometry relative="1" as="geometry">
                        <mxPoint x="-575" y="610" as="sourcePoint"/>
                    </mxGeometry>
                </mxCell>
                <mxCell id="pV_txBsgiGjlM6UxXxGn-25" style="rounded=0;orthogonalLoop=1;jettySize=auto;html=1;exitX=0.5;exitY=0;exitDx=0;exitDy=0;startArrow=oval;startFill=1;endArrow=oval;endFill=1;" parent="pV_txBsgiGjlM6UxXxGn-1" source="pV_txBsgiGjlM6UxXxGn-9" target="pV_txBsgiGjlM6UxXxGn-48" edge="1">
                    <mxGeometry relative="1" as="geometry">
                        <mxPoint x="-573.4818365300716" y="679.9437941586154" as="targetPoint"/>
                    </mxGeometry>
                </mxCell>
                <mxCell id="pV_txBsgiGjlM6UxXxGn-26" style="rounded=0;orthogonalLoop=1;jettySize=auto;html=1;exitX=1;exitY=0.5;exitDx=0;exitDy=0;entryX=0;entryY=0.5;entryDx=0;entryDy=0;dashed=1;startArrow=none;startFill=0;endArrow=none;endFill=0;strokeColor=#000000;" parent="pV_txBsgiGjlM6UxXxGn-1" source="pV_txBsgiGjlM6UxXxGn-27" target="pV_txBsgiGjlM6UxXxGn-43" edge="1">
                    <mxGeometry relative="1" as="geometry"/>
                </mxCell>
                <mxCell id="pV_txBsgiGjlM6UxXxGn-27" value="&lt;font style=&quot;&quot;&gt;Azure Route Server (ARS)&lt;br&gt;&lt;div style=&quot;&quot;&gt;INT0 &lt;b&gt;10.0.0.133&lt;/b&gt;&lt;/div&gt;&lt;div style=&quot;&quot;&gt;INT1 &lt;b&gt;10.0.0.132&lt;/b&gt;&lt;/div&gt;&lt;div style=&quot;&quot;&gt;&lt;b&gt;B2B = Enabled&lt;/b&gt;&lt;/div&gt;&lt;/font&gt;" style="text;html=1;strokeColor=default;fillColor=#E6E6E6;align=center;verticalAlign=middle;whiteSpace=wrap;rounded=0;dashed=1;" parent="pV_txBsgiGjlM6UxXxGn-1" vertex="1">
                    <mxGeometry x="-479" y="365" width="140" height="87" as="geometry"/>
                </mxCell>
                <mxCell id="pV_txBsgiGjlM6UxXxGn-28" style="rounded=0;orthogonalLoop=1;jettySize=auto;html=1;exitX=1;exitY=0.5;exitDx=0;exitDy=0;dashed=1;startArrow=none;startFill=0;endArrow=none;endFill=0;strokeColor=#000000;entryX=0.75;entryY=1;entryDx=0;entryDy=0;" parent="pV_txBsgiGjlM6UxXxGn-1" source="pV_txBsgiGjlM6UxXxGn-29" target="pV_txBsgiGjlM6UxXxGn-8" edge="1">
                    <mxGeometry relative="1" as="geometry">
                        <mxPoint x="-737" y="479" as="targetPoint"/>
                    </mxGeometry>
                </mxCell>
                <mxCell id="pV_txBsgiGjlM6UxXxGn-29" value="SDWAN Appliances&lt;br&gt;Subnet:&amp;nbsp;10.0.0.80/28&lt;br&gt;INT1-&amp;nbsp;&lt;b&gt;10.0.0.84&lt;br&gt;&lt;/b&gt;INT2-&amp;nbsp;&lt;b style=&quot;border-color: var(--border-color);&quot;&gt;10.0.0.85&lt;/b&gt;&lt;br&gt;&lt;b&gt;ASN 65004&lt;/b&gt;" style="text;html=1;strokeColor=default;fillColor=#E6E6E6;align=center;verticalAlign=middle;whiteSpace=wrap;rounded=0;dashed=1;" parent="pV_txBsgiGjlM6UxXxGn-1" vertex="1">
                    <mxGeometry x="-971" y="522" width="140" height="87" as="geometry"/>
                </mxCell>
                <mxCell id="pV_txBsgiGjlM6UxXxGn-30" style="rounded=0;orthogonalLoop=1;jettySize=auto;html=1;dashed=1;strokeColor=#009900;endArrow=none;endFill=0;fontColor=#004F00;labelBackgroundColor=default;entryX=0.846;entryY=0.775;entryDx=0;entryDy=0;entryPerimeter=0;" parent="pV_txBsgiGjlM6UxXxGn-1" source="pV_txBsgiGjlM6UxXxGn-31" target="pV_txBsgiGjlM6UxXxGn-48" edge="1">
                    <mxGeometry relative="1" as="geometry">
                        <mxPoint x="-295" y="532.5" as="sourcePoint"/>
                        <mxPoint x="-575" y="635.25" as="targetPoint"/>
                    </mxGeometry>
                </mxCell>
                <mxCell id="pV_txBsgiGjlM6UxXxGn-31" value="&lt;b&gt;MSEE&lt;br&gt;ASN 12076&lt;br&gt;Provider&lt;br&gt;ASN 65001&lt;br&gt;&lt;/b&gt;" style="text;html=1;strokeColor=#009900;fillColor=none;align=center;verticalAlign=middle;whiteSpace=wrap;rounded=0;dashed=1;" parent="pV_txBsgiGjlM6UxXxGn-1" vertex="1">
                    <mxGeometry x="-504" y="599" width="110" height="62" as="geometry"/>
                </mxCell>
                <mxCell id="pV_txBsgiGjlM6UxXxGn-32" value="hub-lxvm&lt;br&gt;&lt;b&gt;10.0.0.4&lt;br&gt;10.0.0.0/27&lt;br&gt;&lt;/b&gt;" style="text;align=center;html=1;verticalAlign=middle;whiteSpace=wrap;rounded=0;fontSize=12;strokeColor=default;" parent="pV_txBsgiGjlM6UxXxGn-1" vertex="1">
                    <mxGeometry x="-606" y="313" width="71" height="57" as="geometry"/>
                </mxCell>
                <mxCell id="pV_txBsgiGjlM6UxXxGn-43" value="ARS1&lt;br&gt;&lt;b&gt;ANS 65515&lt;/b&gt;" style="whiteSpace=wrap;html=1;aspect=fixed;fillColor=#9FB0FA;" parent="pV_txBsgiGjlM6UxXxGn-1" vertex="1">
                    <mxGeometry x="-610" y="380" width="65" height="65" as="geometry"/>
                </mxCell>
                <mxCell id="pV_txBsgiGjlM6UxXxGn-48" value="" style="aspect=fixed;html=1;points=[];align=center;image;fontSize=12;image=img/lib/azure2/networking/ExpressRoute_Circuits.svg;fillColor=#FF6666;" parent="pV_txBsgiGjlM6UxXxGn-1" vertex="1">
                    <mxGeometry x="-601" y="601" width="43.75" height="40" as="geometry"/>
                </mxCell>
                <mxCell id="pV_txBsgiGjlM6UxXxGn-49" value="" style="rounded=0;orthogonalLoop=1;jettySize=auto;html=1;dashed=1;strokeColor=#009900;endArrow=none;endFill=0;fontColor=#004F00;strokeWidth=1.5;exitX=0.5;exitY=0;exitDx=0;exitDy=0;" parent="pV_txBsgiGjlM6UxXxGn-1" source="pV_txBsgiGjlM6UxXxGn-16" edge="1">
                    <mxGeometry relative="1" as="geometry">
                        <mxPoint x="-579" y="445" as="targetPoint"/>
                        <mxPoint x="-576" y="490" as="sourcePoint"/>
                    </mxGeometry>
                </mxCell>
                <mxCell id="gKa0OA1Wwf-zT32sqcEc-4" value="SDW2" style="whiteSpace=wrap;html=1;aspect=fixed;fillColor=#F9C0A0;direction=south;" parent="pV_txBsgiGjlM6UxXxGn-1" vertex="1">
                    <mxGeometry x="-686" y="453" width="51" height="51" as="geometry"/>
                </mxCell>
                <mxCell id="gKa0OA1Wwf-zT32sqcEc-5" style="rounded=0;orthogonalLoop=1;jettySize=auto;html=1;exitX=0.613;exitY=0.004;exitDx=0;exitDy=0;startArrow=oval;startFill=1;endArrow=oval;endFill=1;strokeColor=#FF0000;entryX=1;entryY=0.5;entryDx=0;entryDy=0;exitPerimeter=0;" parent="pV_txBsgiGjlM6UxXxGn-1" source="pV_txBsgiGjlM6UxXxGn-11" target="gKa0OA1Wwf-zT32sqcEc-4" edge="1">
                    <mxGeometry relative="1" as="geometry">
                        <mxPoint x="-706.5" y="514" as="targetPoint"/>
                        <mxPoint x="-815" y="701" as="sourcePoint"/>
                    </mxGeometry>
                </mxCell>
                <mxCell id="FWws9OsbfxTYVOzWDeag-1" style="edgeStyle=none;html=1;entryX=1;entryY=0.5;entryDx=0;entryDy=0;dashed=1;endArrow=none;endFill=0;" parent="pV_txBsgiGjlM6UxXxGn-1" source="pV_txBsgiGjlM6UxXxGn-65" target="pV_txBsgiGjlM6UxXxGn-16" edge="1">
                    <mxGeometry relative="1" as="geometry"/>
                </mxCell>
                <mxCell id="FWws9OsbfxTYVOzWDeag-30" style="rounded=0;orthogonalLoop=1;jettySize=auto;html=1;exitX=1;exitY=0.5;exitDx=0;exitDy=0;startArrow=oval;startFill=1;endArrow=oval;endFill=1;strokeColor=#FF0000;entryX=0;entryY=0.5;entryDx=0;entryDy=0;" parent="pV_txBsgiGjlM6UxXxGn-1" source="pV_txBsgiGjlM6UxXxGn-11" target="pV_txBsgiGjlM6UxXxGn-9" edge="1">
                    <mxGeometry relative="1" as="geometry">
                        <mxPoint x="-650.5" y="514" as="targetPoint"/>
                        <mxPoint x="-803.7" y="701.3320000000001" as="sourcePoint"/>
                    </mxGeometry>
                </mxCell>
                <mxCell id="LCVSwgqKnEwOuF7lQpnr-0" value="Overlay between FW and SDWs" style="text;html=1;align=center;verticalAlign=middle;resizable=0;points=[];autosize=1;strokeColor=none;fillColor=none;" vertex="1" parent="pV_txBsgiGjlM6UxXxGn-1">
                    <mxGeometry x="-1168" y="420" width="191" height="26" as="geometry"/>
                </mxCell>
                <mxCell id="gKa0OA1Wwf-zT32sqcEc-9" value="sd-wan-ars" parent="pV_txBsgiGjlM6UxXxGn-0"/>
                <mxCell id="gKa0OA1Wwf-zT32sqcEc-10" value="" style="rounded=0;orthogonalLoop=1;jettySize=auto;html=1;dashed=1;strokeColor=#009900;endArrow=none;endFill=0;fontColor=#004F00;strokeWidth=1.5;exitX=0;exitY=0.5;exitDx=0;exitDy=0;entryX=0;entryY=0.5;entryDx=0;entryDy=0;" parent="gKa0OA1Wwf-zT32sqcEc-9" edge="1">
                    <mxGeometry relative="1" as="geometry">
                        <mxPoint x="-610" y="412.5" as="targetPoint"/>
                        <mxPoint x="-716.5" y="453" as="sourcePoint"/>
                    </mxGeometry>
                </mxCell>
                <mxCell id="gKa0OA1Wwf-zT32sqcEc-11" value="" style="rounded=0;orthogonalLoop=1;jettySize=auto;html=1;dashed=1;strokeColor=#009900;endArrow=none;endFill=0;fontColor=#004F00;strokeWidth=1.5;" parent="gKa0OA1Wwf-zT32sqcEc-9" edge="1">
                    <mxGeometry relative="1" as="geometry">
                        <mxPoint x="-611" y="421" as="targetPoint"/>
                        <mxPoint x="-663" y="453" as="sourcePoint"/>
                    </mxGeometry>
                </mxCell>
                <mxCell id="FWws9OsbfxTYVOzWDeag-39" value="VNET Peering = Use Remote Gateway Enabled&lt;br&gt;" style="text;html=1;align=center;verticalAlign=middle;resizable=0;points=[];autosize=1;strokeColor=none;fillColor=none;" parent="gKa0OA1Wwf-zT32sqcEc-9" vertex="1">
                    <mxGeometry x="-418" y="714" width="273" height="26" as="geometry"/>
                </mxCell>
                <mxCell id="FWws9OsbfxTYVOzWDeag-40" value="" style="edgeStyle=none;orthogonalLoop=1;jettySize=auto;html=1;strokeColor=#007FFF;startArrow=none;startFill=0;endArrow=none;endFill=0;strokeWidth=1.5;" parent="gKa0OA1Wwf-zT32sqcEc-9" edge="1">
                    <mxGeometry width="80" relative="1" as="geometry">
                        <mxPoint x="-493.0000000000002" y="730" as="sourcePoint"/>
                        <mxPoint x="-413.0000000000002" y="730" as="targetPoint"/>
                        <Array as="points"/>
                    </mxGeometry>
                </mxCell>
                <mxCell id="FWws9OsbfxTYVOzWDeag-41" value="" style="rounded=0;orthogonalLoop=1;jettySize=auto;html=1;exitX=1;exitY=0.5;exitDx=0;exitDy=0;dashed=1;strokeColor=#009900;endArrow=none;endFill=0;fontColor=#004F00;strokeWidth=1.5;" parent="gKa0OA1Wwf-zT32sqcEc-9" edge="1">
                    <mxGeometry relative="1" as="geometry">
                        <mxPoint x="-416" y="747" as="targetPoint"/>
                        <mxPoint x="-495" y="747" as="sourcePoint"/>
                    </mxGeometry>
                </mxCell>
                <mxCell id="FWws9OsbfxTYVOzWDeag-42" value="Azure Route Server BGP peering" style="text;html=1;align=center;verticalAlign=middle;resizable=0;points=[];autosize=1;strokeColor=none;fillColor=none;" parent="gKa0OA1Wwf-zT32sqcEc-9" vertex="1">
                    <mxGeometry x="-418" y="734" width="195" height="26" as="geometry"/>
                </mxCell>
                <mxCell id="pV_txBsgiGjlM6UxXxGn-50" value="Firewall" parent="pV_txBsgiGjlM6UxXxGn-0"/>
                <mxCell id="pV_txBsgiGjlM6UxXxGn-51" style="edgeStyle=none;hachureGap=4;html=1;exitX=1;exitY=0.5;exitDx=0;exitDy=0;strokeColor=#009999;strokeWidth=1;fontFamily=Helvetica;fontSource=https%3A%2F%2Ffonts.googleapis.com%2Fcss%3Ffamily%3DArchitects%2BDaughter;fontSize=11;rounded=0;startArrow=classic;dashed=1;startSize=4;endSize=4;jumpSize=4;" parent="pV_txBsgiGjlM6UxXxGn-50" source="pV_txBsgiGjlM6UxXxGn-52" target="pV_txBsgiGjlM6UxXxGn-32" edge="1">
                    <mxGeometry relative="1" as="geometry"/>
                </mxCell>
                <mxCell id="pV_txBsgiGjlM6UxXxGn-52" value="LBFW&lt;br&gt;10.0.0.118&lt;br&gt;&lt;b&gt;AS 65000&lt;/b&gt;" style="whiteSpace=wrap;html=1;aspect=fixed;gradientColor=none;fillStyle=auto;fillColor=#F18992;" parent="pV_txBsgiGjlM6UxXxGn-50" vertex="1">
                    <mxGeometry x="-710" y="340" width="60" height="60" as="geometry"/>
                </mxCell>
                <mxCell id="pV_txBsgiGjlM6UxXxGn-54" value="" style="endArrow=classic;startArrow=classic;html=1;rounded=0;dashed=1;strokeWidth=2;exitX=0.25;exitY=0;exitDx=0;exitDy=0;strokeColor=#009999;entryX=0.422;entryY=1.033;entryDx=0;entryDy=0;entryPerimeter=0;" parent="pV_txBsgiGjlM6UxXxGn-50" source="pV_txBsgiGjlM6UxXxGn-52" target="pV_txBsgiGjlM6UxXxGn-5" edge="1">
                    <mxGeometry width="50" height="50" relative="1" as="geometry">
                        <mxPoint x="-646.9999999999998" y="397" as="sourcePoint"/>
                        <mxPoint x="-697" y="210" as="targetPoint"/>
                    </mxGeometry>
                </mxCell>
                <mxCell id="pV_txBsgiGjlM6UxXxGn-55" value="" style="endArrow=classic;startArrow=classic;html=1;rounded=0;dashed=1;strokeWidth=2;strokeColor=#009999;entryX=1;entryY=0.5;entryDx=0;entryDy=0;" parent="pV_txBsgiGjlM6UxXxGn-50" edge="1">
                    <mxGeometry width="50" height="50" relative="1" as="geometry">
                        <mxPoint x="-826" y="681" as="sourcePoint"/>
                        <mxPoint x="-724" y="500.0000000000002" as="targetPoint"/>
                    </mxGeometry>
                </mxCell>
                <mxCell id="pV_txBsgiGjlM6UxXxGn-56" value="" style="endArrow=classic;startArrow=classic;html=1;rounded=0;dashed=1;strokeWidth=2;strokeColor=#009999;exitX=0.75;exitY=0;exitDx=0;exitDy=0;" parent="pV_txBsgiGjlM6UxXxGn-50" source="pV_txBsgiGjlM6UxXxGn-52" edge="1">
                    <mxGeometry width="50" height="50" relative="1" as="geometry">
                        <mxPoint x="-615" y="340" as="sourcePoint"/>
                        <mxPoint x="-579" y="212" as="targetPoint"/>
                        <Array as="points">
                            <mxPoint x="-598" y="293"/>
                        </Array>
                    </mxGeometry>
                </mxCell>
                <mxCell id="gKa0OA1Wwf-zT32sqcEc-14" value="" style="endArrow=classic;startArrow=classic;html=1;rounded=0;dashed=1;strokeWidth=2;strokeColor=#009999;entryX=1;entryY=0.5;entryDx=0;entryDy=0;exitX=0.75;exitY=0;exitDx=0;exitDy=0;" parent="pV_txBsgiGjlM6UxXxGn-50" source="pV_txBsgiGjlM6UxXxGn-11" edge="1">
                    <mxGeometry width="50" height="50" relative="1" as="geometry">
                        <mxPoint x="-765" y="697" as="sourcePoint"/>
                        <mxPoint x="-649" y="507.0000000000002" as="targetPoint"/>
                    </mxGeometry>
                </mxCell>
                <mxCell id="gKa0OA1Wwf-zT32sqcEc-19" style="rounded=0;orthogonalLoop=1;jettySize=auto;html=1;dashed=1;strokeColor=#FF8000;endArrow=none;endFill=0;fontColor=#004F00;startArrow=none;entryX=0.25;entryY=1;entryDx=0;entryDy=0;strokeWidth=2;exitX=0;exitY=0.5;exitDx=0;exitDy=0;" parent="pV_txBsgiGjlM6UxXxGn-50" source="pV_txBsgiGjlM6UxXxGn-8" target="pV_txBsgiGjlM6UxXxGn-52" edge="1">
                    <mxGeometry relative="1" as="geometry">
                        <mxPoint x="-670" y="410" as="targetPoint"/>
                        <mxPoint x="-600" y="422.5" as="sourcePoint"/>
                    </mxGeometry>
                </mxCell>
                <mxCell id="gKa0OA1Wwf-zT32sqcEc-20" style="rounded=0;orthogonalLoop=1;jettySize=auto;html=1;dashed=1;strokeColor=#FF8000;endArrow=none;endFill=0;fontColor=#004F00;startArrow=none;strokeWidth=2;exitX=0;exitY=0.5;exitDx=0;exitDy=0;" parent="pV_txBsgiGjlM6UxXxGn-50" source="gKa0OA1Wwf-zT32sqcEc-4" edge="1">
                    <mxGeometry relative="1" as="geometry">
                        <mxPoint x="-670" y="403" as="targetPoint"/>
                        <mxPoint x="-706.5" y="463" as="sourcePoint"/>
                    </mxGeometry>
                </mxCell>
                <object label="UDR" id="pV_txBsgiGjlM6UxXxGn-64">
                    <mxCell parent="pV_txBsgiGjlM6UxXxGn-0"/>
                </object>
                <mxCell id="pV_txBsgiGjlM6UxXxGn-65" value="RT-GatewaySubnet&lt;br&gt;10.0.1.0/24-&amp;gt;FW&lt;br&gt;10.0.2.0/24-&amp;gt;FW&lt;br&gt;10.0.0.0/24-&amp;gt;FW" style="aspect=fixed;html=1;points=[];align=center;image;fontSize=12;image=img/lib/azure2/networking/Route_Tables.svg;fontStyle=1" parent="pV_txBsgiGjlM6UxXxGn-64" vertex="1">
                    <mxGeometry x="-459" y="497" width="29.94" height="29" as="geometry"/>
                </mxCell>
                <mxCell id="FWws9OsbfxTYVOzWDeag-17" value="RT-SDWAN&lt;br&gt;10.0.1.0/24-&amp;gt;FW&lt;br&gt;10.0.2.0/24-&amp;gt;FW&lt;br&gt;10.0.0.0/27-&amp;gt;FW" style="aspect=fixed;html=1;points=[];align=center;image;fontSize=12;image=img/lib/azure2/networking/Route_Tables.svg;fontStyle=1" parent="pV_txBsgiGjlM6UxXxGn-64" vertex="1">
                    <mxGeometry x="-905" y="395" width="29.94" height="29" as="geometry"/>
                </mxCell>
                <mxCell id="FWws9OsbfxTYVOzWDeag-18" value="&lt;b&gt;Why UDR?&amp;nbsp;&lt;br&gt;&lt;/b&gt;SD-WAN Devices need &lt;br&gt;to override System Routes" style="text;html=1;align=left;verticalAlign=middle;resizable=0;points=[];autosize=1;strokeColor=none;fillColor=none;" parent="pV_txBsgiGjlM6UxXxGn-64" vertex="1">
                    <mxGeometry x="-946" y="346" width="159" height="55" as="geometry"/>
                </mxCell>
                <mxCell id="FWws9OsbfxTYVOzWDeag-19" value="RT-Hub&lt;br&gt;10.0.1.0/24-&amp;gt;FW&lt;br&gt;10.0.2.0/24-&amp;gt;FW&lt;br&gt;10.0.0.0/27-&amp;gt;FW" style="aspect=fixed;html=1;points=[];align=center;image;fontSize=12;image=img/lib/azure2/networking/Route_Tables.svg;fontStyle=1" parent="pV_txBsgiGjlM6UxXxGn-64" vertex="1">
                    <mxGeometry x="-430" y="273" width="29.94" height="29" as="geometry"/>
                </mxCell>
                <mxCell id="FWws9OsbfxTYVOzWDeag-20" value="&lt;b&gt;Why UDR?&lt;br&gt;&lt;/b&gt;hub-lxvm needs to override &lt;br&gt;System Routes" style="text;html=1;align=left;verticalAlign=middle;resizable=0;points=[];autosize=1;strokeColor=none;fillColor=none;" parent="pV_txBsgiGjlM6UxXxGn-64" vertex="1">
                    <mxGeometry x="-469" y="215" width="163" height="55" as="geometry"/>
                </mxCell>
                <mxCell id="FWws9OsbfxTYVOzWDeag-21" value="RT-SPK&lt;br&gt;10.0.0.0/27-&amp;gt;FW" style="aspect=fixed;html=1;points=[];align=center;image;fontSize=12;image=img/lib/azure2/networking/Route_Tables.svg;fontStyle=1" parent="pV_txBsgiGjlM6UxXxGn-64" vertex="1">
                    <mxGeometry x="-646" y="22" width="29.94" height="29" as="geometry"/>
                </mxCell>
                <mxCell id="FWws9OsbfxTYVOzWDeag-22" value="&lt;b&gt;Why UDR?&lt;br&gt;&lt;/b&gt;Spoke VMs need force traffic to FW&lt;br&gt;when reaching hub-lxvms&lt;br&gt;It is not possible to advertise prefixes smaller &lt;br&gt;than Hub VNET via ARS, for example Hub VM Subnet&lt;br&gt;10.0.0.0/27." style="text;html=1;align=left;verticalAlign=middle;resizable=0;points=[];autosize=1;strokeColor=none;fillColor=none;" parent="pV_txBsgiGjlM6UxXxGn-64" vertex="1">
                    <mxGeometry x="-752" y="-79" width="305" height="98" as="geometry"/>
                </mxCell>
                <mxCell id="FWws9OsbfxTYVOzWDeag-23" style="edgeStyle=none;html=1;entryX=1;entryY=0.25;entryDx=0;entryDy=0;endArrow=none;endFill=0;dashed=1;" parent="pV_txBsgiGjlM6UxXxGn-64" source="FWws9OsbfxTYVOzWDeag-19" edge="1">
                    <mxGeometry relative="1" as="geometry">
                        <mxPoint x="-525" y="337.25" as="targetPoint"/>
                    </mxGeometry>
                </mxCell>
                <mxCell id="FWws9OsbfxTYVOzWDeag-24" style="edgeStyle=none;html=1;dashed=1;fontColor=#FF8000;endArrow=none;endFill=0;" parent="pV_txBsgiGjlM6UxXxGn-64" source="FWws9OsbfxTYVOzWDeag-26" edge="1">
                    <mxGeometry relative="1" as="geometry">
                        <mxPoint x="-711" y="366" as="targetPoint"/>
                    </mxGeometry>
                </mxCell>
                <mxCell id="FWws9OsbfxTYVOzWDeag-25" style="edgeStyle=none;html=1;dashed=1;endArrow=none;endFill=0;entryX=0.25;entryY=1;entryDx=0;entryDy=0;" parent="pV_txBsgiGjlM6UxXxGn-64" source="FWws9OsbfxTYVOzWDeag-17" target="pV_txBsgiGjlM6UxXxGn-8" edge="1">
                    <mxGeometry relative="1" as="geometry">
                        <mxPoint x="-740" y="471" as="targetPoint"/>
                    </mxGeometry>
                </mxCell>
                <mxCell id="FWws9OsbfxTYVOzWDeag-26" value="FW BGP Advertises&lt;br&gt;10.0.0.0/22" style="text;html=1;align=center;verticalAlign=middle;resizable=0;points=[];autosize=1;strokeColor=#d6b656;fillColor=#fff2cc;dashed=1;" parent="pV_txBsgiGjlM6UxXxGn-64" vertex="1">
                    <mxGeometry x="-946" y="289" width="124" height="41" as="geometry"/>
                </mxCell>
            </root>
        </mxGraphModel>
    </diagram>
    <diagram name="SD-VNET" id="v_oJ7eFrxNq7j85Yx0EX">
        <mxGraphModel dx="3225" dy="656" grid="0" gridSize="10" guides="0" tooltips="0" connect="1" arrows="1" fold="1" page="0" pageScale="1" pageWidth="1100" pageHeight="850" background="none" math="0" shadow="0">
            <root>
                <mxCell id="troMd9qhn7XEFZoUYkuW-0"/>
                <mxCell id="troMd9qhn7XEFZoUYkuW-1" parent="troMd9qhn7XEFZoUYkuW-0"/>
                <mxCell id="9YHOw0NfHvEYY-PrdQ5U-2" value="SD-WAN VNET&lt;br&gt;10.20.0.0/24" style="rounded=1;whiteSpace=wrap;html=1;fillColor=none;labelPosition=center;verticalLabelPosition=top;align=center;verticalAlign=bottom;" parent="troMd9qhn7XEFZoUYkuW-1" vertex="1">
                    <mxGeometry x="-958" y="319" width="159" height="146" as="geometry"/>
                </mxCell>
                <mxCell id="troMd9qhn7XEFZoUYkuW-2" value="Spoke12&lt;br&gt;&lt;b style=&quot;border-color: var(--border-color);&quot;&gt;spk2-lxvm&lt;br style=&quot;border-color: var(--border-color);&quot;&gt;10.0.2.4&lt;/b&gt;" style="rounded=1;whiteSpace=wrap;html=1;fillColor=#9BE0BA;" parent="troMd9qhn7XEFZoUYkuW-1" vertex="1">
                    <mxGeometry x="-627" y="120" width="116" height="90" as="geometry"/>
                </mxCell>
                <mxCell id="troMd9qhn7XEFZoUYkuW-3" value="Spoke1&lt;br&gt;&lt;b&gt;spk1-lxvm&lt;br&gt;10.0.1.4&lt;/b&gt;" style="rounded=1;whiteSpace=wrap;html=1;fillColor=#9BE0BA;" parent="troMd9qhn7XEFZoUYkuW-1" vertex="1">
                    <mxGeometry x="-776" y="123" width="113" height="90" as="geometry"/>
                </mxCell>
                <mxCell id="troMd9qhn7XEFZoUYkuW-4" value="&lt;b&gt;&lt;br&gt;&lt;br&gt;&lt;/b&gt;" style="rounded=1;whiteSpace=wrap;html=1;verticalAlign=top;fillColor=#99C9EF;arcSize=11;" parent="troMd9qhn7XEFZoUYkuW-1" vertex="1">
                    <mxGeometry x="-765" y="280" width="250" height="240" as="geometry"/>
                </mxCell>
                <mxCell id="troMd9qhn7XEFZoUYkuW-5" style="rounded=0;orthogonalLoop=1;jettySize=auto;html=1;exitX=0;exitY=0.5;exitDx=0;exitDy=0;dashed=1;strokeColor=#009900;endArrow=none;endFill=0;fontColor=#004F00;startArrow=none;entryX=1;entryY=0.5;entryDx=0;entryDy=0;strokeWidth=2;" parent="troMd9qhn7XEFZoUYkuW-1" source="troMd9qhn7XEFZoUYkuW-28" target="troMd9qhn7XEFZoUYkuW-44" edge="1">
                    <mxGeometry relative="1" as="geometry">
                        <mxPoint x="-715" y="404" as="targetPoint"/>
                    </mxGeometry>
                </mxCell>
                <mxCell id="troMd9qhn7XEFZoUYkuW-6" value="SDW1&lt;br&gt;" style="whiteSpace=wrap;html=1;aspect=fixed;fillColor=#F9C0A0;direction=south;" parent="troMd9qhn7XEFZoUYkuW-1" vertex="1">
                    <mxGeometry x="-928" y="339" width="51" height="51" as="geometry"/>
                </mxCell>
                <mxCell id="troMd9qhn7XEFZoUYkuW-7" value="DC1&lt;br&gt;&lt;b&gt;ASN 65128&lt;br&gt;VM 10.128.0.4&lt;br&gt;&lt;/b&gt;" style="rounded=0;whiteSpace=wrap;html=1;fillColor=#f5f5f5;strokeColor=#666666;gradientColor=#b3b3b3;" parent="troMd9qhn7XEFZoUYkuW-1" vertex="1">
                    <mxGeometry x="-638" y="697" width="120" height="80" as="geometry"/>
                </mxCell>
                <mxCell id="troMd9qhn7XEFZoUYkuW-8" value="&lt;b&gt;Branch1&lt;br&gt;ASN 65010&lt;br&gt;VM 10.64.0.36&lt;br&gt;&lt;/b&gt;" style="rounded=0;whiteSpace=wrap;html=1;fillColor=#9BE0BA;" parent="troMd9qhn7XEFZoUYkuW-1" vertex="1">
                    <mxGeometry x="-918" y="696" width="100" height="83" as="geometry"/>
                </mxCell>
                <mxCell id="troMd9qhn7XEFZoUYkuW-9" style="rounded=1;orthogonalLoop=1;jettySize=auto;html=1;exitX=0.5;exitY=1;exitDx=0;exitDy=0;entryX=0.715;entryY=0.001;entryDx=0;entryDy=0;startArrow=none;startFill=0;endArrow=none;endFill=0;entryPerimeter=0;strokeColor=#007FFF;strokeWidth=1.5;" parent="troMd9qhn7XEFZoUYkuW-1" source="troMd9qhn7XEFZoUYkuW-2" target="troMd9qhn7XEFZoUYkuW-4" edge="1">
                    <mxGeometry relative="1" as="geometry"/>
                </mxCell>
                <mxCell id="troMd9qhn7XEFZoUYkuW-10" style="rounded=1;orthogonalLoop=1;jettySize=auto;html=1;exitX=0.5;exitY=1;exitDx=0;exitDy=0;entryX=0.25;entryY=0;entryDx=0;entryDy=0;startArrow=none;startFill=0;endArrow=none;endFill=0;strokeColor=#007FFF;strokeWidth=1.5;" parent="troMd9qhn7XEFZoUYkuW-1" source="troMd9qhn7XEFZoUYkuW-3" target="troMd9qhn7XEFZoUYkuW-4" edge="1">
                    <mxGeometry relative="1" as="geometry"/>
                </mxCell>
                <mxCell id="troMd9qhn7XEFZoUYkuW-11" style="rounded=0;orthogonalLoop=1;jettySize=auto;html=1;startArrow=none;startFill=1;endArrow=oval;endFill=1;strokeColor=#FF0000;entryX=1;entryY=0.5;entryDx=0;entryDy=0;exitX=0.25;exitY=0;exitDx=0;exitDy=0;" parent="troMd9qhn7XEFZoUYkuW-1" source="troMd9qhn7XEFZoUYkuW-8" target="troMd9qhn7XEFZoUYkuW-6" edge="1">
                    <mxGeometry relative="1" as="geometry">
                        <mxPoint x="-725" y="500" as="targetPoint"/>
                    </mxGeometry>
                </mxCell>
                <mxCell id="troMd9qhn7XEFZoUYkuW-12" value="ERGW1&lt;br&gt;&lt;b&gt;ASN 65515&lt;/b&gt;" style="whiteSpace=wrap;html=1;aspect=fixed;fillStyle=auto;fillColor=#9FB0FA;" parent="troMd9qhn7XEFZoUYkuW-1" vertex="1">
                    <mxGeometry x="-605" y="489" width="50" height="50" as="geometry"/>
                </mxCell>
                <mxCell id="troMd9qhn7XEFZoUYkuW-13" value="10.0.1.0/24" style="text;html=1;strokeColor=none;fillColor=none;align=center;verticalAlign=middle;whiteSpace=wrap;rounded=0;fontStyle=1" parent="troMd9qhn7XEFZoUYkuW-1" vertex="1">
                    <mxGeometry x="-755" y="98" width="80" height="20" as="geometry"/>
                </mxCell>
                <mxCell id="troMd9qhn7XEFZoUYkuW-14" value="10.0.2.0/24" style="text;html=1;strokeColor=none;fillColor=none;align=center;verticalAlign=middle;whiteSpace=wrap;rounded=0;fontStyle=1" parent="troMd9qhn7XEFZoUYkuW-1" vertex="1">
                    <mxGeometry x="-600" y="101" width="80" height="20" as="geometry"/>
                </mxCell>
                <mxCell id="troMd9qhn7XEFZoUYkuW-15" value="&lt;b&gt;10.64.0.0/24&lt;/b&gt;" style="text;html=1;strokeColor=none;fillColor=none;align=center;verticalAlign=middle;whiteSpace=wrap;rounded=0;" parent="troMd9qhn7XEFZoUYkuW-1" vertex="1">
                    <mxGeometry x="-903" y="779" width="80" height="20" as="geometry"/>
                </mxCell>
                <mxCell id="troMd9qhn7XEFZoUYkuW-16" value="HUB&lt;br&gt;10.0.0.0/24" style="text;html=1;strokeColor=none;fillColor=none;align=center;verticalAlign=middle;whiteSpace=wrap;rounded=0;fontStyle=1" parent="troMd9qhn7XEFZoUYkuW-1" vertex="1">
                    <mxGeometry x="-683" y="256" width="80" height="20" as="geometry"/>
                </mxCell>
                <mxCell id="troMd9qhn7XEFZoUYkuW-17" value="" style="edgeStyle=none;html=1;" parent="troMd9qhn7XEFZoUYkuW-1" source="troMd9qhn7XEFZoUYkuW-18" target="troMd9qhn7XEFZoUYkuW-7" edge="1">
                    <mxGeometry relative="1" as="geometry"/>
                </mxCell>
                <mxCell id="troMd9qhn7XEFZoUYkuW-18" value="&lt;b&gt;10.128.0.0/24&lt;/b&gt;" style="text;html=1;strokeColor=none;fillColor=none;align=center;verticalAlign=middle;whiteSpace=wrap;rounded=0;" parent="troMd9qhn7XEFZoUYkuW-1" vertex="1">
                    <mxGeometry x="-610" y="773" width="80" height="20" as="geometry"/>
                </mxCell>
                <mxCell id="troMd9qhn7XEFZoUYkuW-19" style="rounded=0;orthogonalLoop=1;jettySize=auto;html=1;entryX=0.5;entryY=1;entryDx=0;entryDy=0;startArrow=none;startFill=0;endArrow=none;endFill=0;" parent="troMd9qhn7XEFZoUYkuW-1" source="troMd9qhn7XEFZoUYkuW-29" target="troMd9qhn7XEFZoUYkuW-12" edge="1">
                    <mxGeometry relative="1" as="geometry">
                        <mxPoint x="-575" y="610" as="sourcePoint"/>
                    </mxGeometry>
                </mxCell>
                <mxCell id="troMd9qhn7XEFZoUYkuW-20" style="rounded=0;orthogonalLoop=1;jettySize=auto;html=1;exitX=0.5;exitY=0;exitDx=0;exitDy=0;startArrow=oval;startFill=1;endArrow=oval;endFill=1;" parent="troMd9qhn7XEFZoUYkuW-1" source="troMd9qhn7XEFZoUYkuW-7" target="troMd9qhn7XEFZoUYkuW-29" edge="1">
                    <mxGeometry relative="1" as="geometry">
                        <mxPoint x="-573.4818365300716" y="679.9437941586154" as="targetPoint"/>
                    </mxGeometry>
                </mxCell>
                <mxCell id="troMd9qhn7XEFZoUYkuW-21" style="rounded=0;orthogonalLoop=1;jettySize=auto;html=1;exitX=1;exitY=0.5;exitDx=0;exitDy=0;entryX=0;entryY=0.5;entryDx=0;entryDy=0;dashed=1;startArrow=none;startFill=0;endArrow=none;endFill=0;strokeColor=#000000;" parent="troMd9qhn7XEFZoUYkuW-1" source="troMd9qhn7XEFZoUYkuW-22" target="troMd9qhn7XEFZoUYkuW-28" edge="1">
                    <mxGeometry relative="1" as="geometry"/>
                </mxCell>
                <mxCell id="troMd9qhn7XEFZoUYkuW-22" value="&lt;font style=&quot;&quot;&gt;Azure Route Server (ARS)&lt;br&gt;&lt;div style=&quot;&quot;&gt;INT0 &lt;b&gt;10.0.0.133&lt;/b&gt;&lt;/div&gt;&lt;div style=&quot;&quot;&gt;INT1 &lt;b&gt;10.0.0.132&lt;/b&gt;&lt;/div&gt;&lt;div style=&quot;&quot;&gt;&lt;b&gt;B2B = Enabled&lt;/b&gt;&lt;/div&gt;&lt;/font&gt;" style="text;html=1;strokeColor=default;fillColor=#E6E6E6;align=center;verticalAlign=middle;whiteSpace=wrap;rounded=0;dashed=1;" parent="troMd9qhn7XEFZoUYkuW-1" vertex="1">
                    <mxGeometry x="-477" y="336" width="140" height="87" as="geometry"/>
                </mxCell>
                <mxCell id="troMd9qhn7XEFZoUYkuW-23" style="rounded=0;orthogonalLoop=1;jettySize=auto;html=1;exitX=1;exitY=0.5;exitDx=0;exitDy=0;dashed=1;startArrow=none;startFill=0;endArrow=none;endFill=0;strokeColor=#000000;entryX=0;entryY=0.5;entryDx=0;entryDy=0;" parent="troMd9qhn7XEFZoUYkuW-1" source="troMd9qhn7XEFZoUYkuW-24" target="9YHOw0NfHvEYY-PrdQ5U-2" edge="1">
                    <mxGeometry relative="1" as="geometry">
                        <mxPoint x="-801" y="282" as="targetPoint"/>
                    </mxGeometry>
                </mxCell>
                <mxCell id="troMd9qhn7XEFZoUYkuW-24" value="SDWAN Appliances&lt;br&gt;INT1-&amp;nbsp;&lt;b&gt;10.20.0.4&lt;br&gt;&lt;/b&gt;INT2-&amp;nbsp;&lt;b style=&quot;border-color: var(--border-color);&quot;&gt;10.20.0.5&lt;/b&gt;&lt;br&gt;&lt;b&gt;ASN 65004&lt;/b&gt;" style="text;html=1;strokeColor=default;fillColor=#E6E6E6;align=center;verticalAlign=middle;whiteSpace=wrap;rounded=0;dashed=1;" parent="troMd9qhn7XEFZoUYkuW-1" vertex="1">
                    <mxGeometry x="-1127" y="349" width="140" height="87" as="geometry"/>
                </mxCell>
                <mxCell id="troMd9qhn7XEFZoUYkuW-25" style="rounded=0;orthogonalLoop=1;jettySize=auto;html=1;dashed=1;strokeColor=#009900;endArrow=none;endFill=0;fontColor=#004F00;labelBackgroundColor=default;entryX=0.846;entryY=0.775;entryDx=0;entryDy=0;entryPerimeter=0;" parent="troMd9qhn7XEFZoUYkuW-1" source="troMd9qhn7XEFZoUYkuW-26" target="troMd9qhn7XEFZoUYkuW-29" edge="1">
                    <mxGeometry relative="1" as="geometry">
                        <mxPoint x="-295" y="532.5" as="sourcePoint"/>
                        <mxPoint x="-575" y="635.25" as="targetPoint"/>
                    </mxGeometry>
                </mxCell>
                <mxCell id="troMd9qhn7XEFZoUYkuW-26" value="&lt;b&gt;MSEE&lt;br&gt;ASN 12076&lt;br&gt;Provider&lt;br&gt;ASN 65001&lt;br&gt;&lt;/b&gt;" style="text;html=1;strokeColor=#009900;fillColor=none;align=center;verticalAlign=middle;whiteSpace=wrap;rounded=0;dashed=1;" parent="troMd9qhn7XEFZoUYkuW-1" vertex="1">
                    <mxGeometry x="-504" y="599" width="110" height="62" as="geometry"/>
                </mxCell>
                <mxCell id="troMd9qhn7XEFZoUYkuW-28" value="ARS1&lt;br&gt;&lt;b&gt;ANS 65515&lt;/b&gt;" style="whiteSpace=wrap;html=1;aspect=fixed;fillColor=#9FB0FA;" parent="troMd9qhn7XEFZoUYkuW-1" vertex="1">
                    <mxGeometry x="-607" y="348" width="65" height="65" as="geometry"/>
                </mxCell>
                <mxCell id="troMd9qhn7XEFZoUYkuW-29" value="" style="aspect=fixed;html=1;points=[];align=center;image;fontSize=12;image=img/lib/azure2/networking/ExpressRoute_Circuits.svg;fillColor=#FF6666;" parent="troMd9qhn7XEFZoUYkuW-1" vertex="1">
                    <mxGeometry x="-601" y="604" width="43.75" height="40" as="geometry"/>
                </mxCell>
                <mxCell id="troMd9qhn7XEFZoUYkuW-30" value="" style="rounded=0;orthogonalLoop=1;jettySize=auto;html=1;dashed=1;strokeColor=#009900;endArrow=none;endFill=0;fontColor=#004F00;strokeWidth=1.5;exitX=0.5;exitY=0;exitDx=0;exitDy=0;" parent="troMd9qhn7XEFZoUYkuW-1" source="troMd9qhn7XEFZoUYkuW-12" edge="1">
                    <mxGeometry relative="1" as="geometry">
                        <mxPoint x="-580" y="411" as="targetPoint"/>
                        <mxPoint x="-576" y="490" as="sourcePoint"/>
                    </mxGeometry>
                </mxCell>
                <mxCell id="troMd9qhn7XEFZoUYkuW-33" style="edgeStyle=none;html=1;entryX=1;entryY=0.5;entryDx=0;entryDy=0;dashed=1;endArrow=none;endFill=0;" parent="troMd9qhn7XEFZoUYkuW-1" source="troMd9qhn7XEFZoUYkuW-52" target="troMd9qhn7XEFZoUYkuW-12" edge="1">
                    <mxGeometry relative="1" as="geometry"/>
                </mxCell>
                <mxCell id="troMd9qhn7XEFZoUYkuW-34" style="rounded=0;orthogonalLoop=1;jettySize=auto;html=1;exitX=1;exitY=0.5;exitDx=0;exitDy=0;startArrow=oval;startFill=1;endArrow=oval;endFill=1;strokeColor=#FF0000;entryX=0;entryY=0.5;entryDx=0;entryDy=0;" parent="troMd9qhn7XEFZoUYkuW-1" source="troMd9qhn7XEFZoUYkuW-8" target="troMd9qhn7XEFZoUYkuW-7" edge="1">
                    <mxGeometry relative="1" as="geometry">
                        <mxPoint x="-650.5" y="514" as="targetPoint"/>
                        <mxPoint x="-803.7" y="701.3320000000001" as="sourcePoint"/>
                    </mxGeometry>
                </mxCell>
                <mxCell id="l-haFHgDrjRUKEXccmmC-0" value="Spoke13&lt;br&gt;(Shared Services)&lt;br&gt;&lt;b style=&quot;border-color: var(--border-color);&quot;&gt;spk3-lxvm (former&amp;nbsp;hub-lxvm&lt;span style=&quot;font-weight: 400;&quot;&gt;)&lt;/span&gt;&lt;br style=&quot;border-color: var(--border-color);&quot;&gt;10.0.3.4&lt;/b&gt;" style="rounded=1;whiteSpace=wrap;html=1;fillColor=#9BE0BA;" parent="troMd9qhn7XEFZoUYkuW-1" vertex="1">
                    <mxGeometry x="-452" y="176" width="116" height="90" as="geometry"/>
                </mxCell>
                <mxCell id="l-haFHgDrjRUKEXccmmC-2" style="rounded=1;orthogonalLoop=1;jettySize=auto;html=1;exitX=0;exitY=0.5;exitDx=0;exitDy=0;startArrow=none;startFill=0;endArrow=none;endFill=0;strokeColor=#007FFF;strokeWidth=1.5;" parent="troMd9qhn7XEFZoUYkuW-1" source="l-haFHgDrjRUKEXccmmC-0" edge="1">
                    <mxGeometry relative="1" as="geometry">
                        <mxPoint x="-559" y="220" as="sourcePoint"/>
                        <mxPoint x="-526" y="284" as="targetPoint"/>
                    </mxGeometry>
                </mxCell>
                <mxCell id="troMd9qhn7XEFZoUYkuW-31" value="SDW2" style="whiteSpace=wrap;html=1;aspect=fixed;fillColor=#F9C0A0;direction=south;" parent="troMd9qhn7XEFZoUYkuW-1" vertex="1">
                    <mxGeometry x="-881" y="399" width="51" height="51" as="geometry"/>
                </mxCell>
                <mxCell id="aI5z4vZYZ7laRPrlgjQW-4" value="VNET Peering = Use Remote Gateway Enabled&lt;br&gt;" style="text;html=1;align=center;verticalAlign=middle;resizable=0;points=[];autosize=1;strokeColor=none;fillColor=none;" parent="troMd9qhn7XEFZoUYkuW-1" vertex="1">
                    <mxGeometry x="-418" y="716" width="273" height="26" as="geometry"/>
                </mxCell>
                <mxCell id="aI5z4vZYZ7laRPrlgjQW-5" value="" style="edgeStyle=none;orthogonalLoop=1;jettySize=auto;html=1;strokeColor=#007FFF;startArrow=none;startFill=0;endArrow=none;endFill=0;strokeWidth=1.5;" parent="troMd9qhn7XEFZoUYkuW-1" edge="1">
                    <mxGeometry width="80" relative="1" as="geometry">
                        <mxPoint x="-495.0000000000002" y="729" as="sourcePoint"/>
                        <mxPoint x="-415.0000000000002" y="729" as="targetPoint"/>
                        <Array as="points"/>
                    </mxGeometry>
                </mxCell>
                <mxCell id="aI5z4vZYZ7laRPrlgjQW-6" value="" style="rounded=0;orthogonalLoop=1;jettySize=auto;html=1;exitX=1;exitY=0.5;exitDx=0;exitDy=0;dashed=1;strokeColor=#009900;endArrow=none;endFill=0;fontColor=#004F00;strokeWidth=1.5;" parent="troMd9qhn7XEFZoUYkuW-1" edge="1">
                    <mxGeometry relative="1" as="geometry">
                        <mxPoint x="-418" y="746" as="targetPoint"/>
                        <mxPoint x="-497" y="746" as="sourcePoint"/>
                    </mxGeometry>
                </mxCell>
                <mxCell id="aI5z4vZYZ7laRPrlgjQW-7" value="Azure Route Server BGP peering" style="text;html=1;align=center;verticalAlign=middle;resizable=0;points=[];autosize=1;strokeColor=none;fillColor=none;" parent="troMd9qhn7XEFZoUYkuW-1" vertex="1">
                    <mxGeometry x="-420" y="733" width="195" height="26" as="geometry"/>
                </mxCell>
                <mxCell id="aI5z4vZYZ7laRPrlgjQW-11" style="rounded=1;orthogonalLoop=1;jettySize=auto;html=1;exitX=0.998;exitY=0.553;exitDx=0;exitDy=0;entryX=0;entryY=0.5;entryDx=0;entryDy=0;startArrow=none;startFill=0;endArrow=none;endFill=0;strokeColor=#007FFF;strokeWidth=1.5;exitPerimeter=0;" parent="troMd9qhn7XEFZoUYkuW-1" source="9YHOw0NfHvEYY-PrdQ5U-2" target="troMd9qhn7XEFZoUYkuW-4" edge="1">
                    <mxGeometry relative="1" as="geometry">
                        <mxPoint x="-709.5" y="223" as="sourcePoint"/>
                        <mxPoint x="-692.5" y="290" as="targetPoint"/>
                    </mxGeometry>
                </mxCell>
                <mxCell id="troMd9qhn7XEFZoUYkuW-32" style="rounded=0;orthogonalLoop=1;jettySize=auto;html=1;startArrow=oval;startFill=1;endArrow=oval;endFill=1;strokeColor=#FF0000;entryX=1;entryY=0.5;entryDx=0;entryDy=0;" parent="troMd9qhn7XEFZoUYkuW-1" target="troMd9qhn7XEFZoUYkuW-31" edge="1">
                    <mxGeometry relative="1" as="geometry">
                        <mxPoint x="-706.5" y="514" as="targetPoint"/>
                        <mxPoint x="-849" y="693" as="sourcePoint"/>
                    </mxGeometry>
                </mxCell>
                <mxCell id="Jpk3_2GUdoHoBFdsQYYL-0" value="10.0.3.0/24" style="text;html=1;strokeColor=none;fillColor=none;align=center;verticalAlign=middle;whiteSpace=wrap;rounded=0;fontStyle=1" vertex="1" parent="troMd9qhn7XEFZoUYkuW-1">
                    <mxGeometry x="-435" y="153" width="80" height="20" as="geometry"/>
                </mxCell>
                <mxCell id="Jpk3_2GUdoHoBFdsQYYL-1" value="Filtros: No_Advertise community&amp;nbsp; (outbound)&lt;br&gt;Inbound AS 12076" style="text;html=1;align=center;verticalAlign=middle;resizable=0;points=[];autosize=1;strokeColor=none;fillColor=none;" vertex="1" parent="troMd9qhn7XEFZoUYkuW-1">
                    <mxGeometry x="-1281" y="555" width="255" height="41" as="geometry"/>
                </mxCell>
                <mxCell id="troMd9qhn7XEFZoUYkuW-42" value="Firewall" parent="troMd9qhn7XEFZoUYkuW-0"/>
                <mxCell id="troMd9qhn7XEFZoUYkuW-44" value="LBFW&lt;br&gt;10.0.0.118&lt;br&gt;&lt;b&gt;AS 65000&lt;/b&gt;" style="whiteSpace=wrap;html=1;aspect=fixed;gradientColor=none;fillStyle=auto;fillColor=#F18992;" parent="troMd9qhn7XEFZoUYkuW-42" vertex="1">
                    <mxGeometry x="-710" y="352" width="60" height="60" as="geometry"/>
                </mxCell>
                <mxCell id="troMd9qhn7XEFZoUYkuW-45" value="" style="endArrow=classic;startArrow=classic;html=1;rounded=0;dashed=1;strokeWidth=2;exitX=0.25;exitY=0;exitDx=0;exitDy=0;strokeColor=#009999;entryX=0.422;entryY=1.033;entryDx=0;entryDy=0;entryPerimeter=0;" parent="troMd9qhn7XEFZoUYkuW-42" source="troMd9qhn7XEFZoUYkuW-44" target="troMd9qhn7XEFZoUYkuW-3" edge="1">
                    <mxGeometry width="50" height="50" relative="1" as="geometry">
                        <mxPoint x="-646.9999999999998" y="397" as="sourcePoint"/>
                        <mxPoint x="-697" y="210" as="targetPoint"/>
                    </mxGeometry>
                </mxCell>
                <mxCell id="troMd9qhn7XEFZoUYkuW-46" value="" style="endArrow=classic;startArrow=classic;html=1;rounded=0;dashed=1;strokeWidth=2;strokeColor=#009999;entryX=1;entryY=0.75;entryDx=0;entryDy=0;" parent="troMd9qhn7XEFZoUYkuW-42" target="troMd9qhn7XEFZoUYkuW-6" edge="1">
                    <mxGeometry width="50" height="50" relative="1" as="geometry">
                        <mxPoint x="-902" y="693" as="sourcePoint"/>
                        <mxPoint x="-724" y="500.0000000000002" as="targetPoint"/>
                    </mxGeometry>
                </mxCell>
                <mxCell id="troMd9qhn7XEFZoUYkuW-47" value="" style="endArrow=classic;startArrow=classic;html=1;rounded=0;dashed=1;strokeWidth=2;strokeColor=#009999;exitX=0.75;exitY=0;exitDx=0;exitDy=0;" parent="troMd9qhn7XEFZoUYkuW-42" source="troMd9qhn7XEFZoUYkuW-44" edge="1">
                    <mxGeometry width="50" height="50" relative="1" as="geometry">
                        <mxPoint x="-615" y="340" as="sourcePoint"/>
                        <mxPoint x="-579" y="212" as="targetPoint"/>
                        <Array as="points">
                            <mxPoint x="-598" y="293"/>
                        </Array>
                    </mxGeometry>
                </mxCell>
                <mxCell id="troMd9qhn7XEFZoUYkuW-48" value="" style="endArrow=classic;startArrow=classic;html=1;rounded=0;dashed=1;strokeWidth=2;strokeColor=#009999;entryX=1;entryY=0.25;entryDx=0;entryDy=0;" parent="troMd9qhn7XEFZoUYkuW-42" target="troMd9qhn7XEFZoUYkuW-31" edge="1">
                    <mxGeometry width="50" height="50" relative="1" as="geometry">
                        <mxPoint x="-836" y="695" as="sourcePoint"/>
                        <mxPoint x="-649" y="507.0000000000002" as="targetPoint"/>
                    </mxGeometry>
                </mxCell>
                <mxCell id="troMd9qhn7XEFZoUYkuW-49" style="rounded=0;orthogonalLoop=1;jettySize=auto;html=1;dashed=1;strokeColor=#FF8000;endArrow=none;endFill=0;fontColor=#004F00;startArrow=none;entryX=-0.028;entryY=0.378;entryDx=0;entryDy=0;strokeWidth=2;exitX=0.5;exitY=0;exitDx=0;exitDy=0;entryPerimeter=0;" parent="troMd9qhn7XEFZoUYkuW-42" source="troMd9qhn7XEFZoUYkuW-6" target="troMd9qhn7XEFZoUYkuW-44" edge="1">
                    <mxGeometry relative="1" as="geometry">
                        <mxPoint x="-670" y="410" as="targetPoint"/>
                        <mxPoint x="-600" y="422.5" as="sourcePoint"/>
                    </mxGeometry>
                </mxCell>
                <mxCell id="troMd9qhn7XEFZoUYkuW-50" style="rounded=0;orthogonalLoop=1;jettySize=auto;html=1;dashed=1;strokeColor=#FF8000;endArrow=none;endFill=0;fontColor=#004F00;startArrow=none;strokeWidth=2;entryX=0;entryY=0.75;entryDx=0;entryDy=0;" parent="troMd9qhn7XEFZoUYkuW-42" source="troMd9qhn7XEFZoUYkuW-31" target="troMd9qhn7XEFZoUYkuW-44" edge="1">
                    <mxGeometry relative="1" as="geometry">
                        <mxPoint x="-670" y="403" as="targetPoint"/>
                        <mxPoint x="-706.5" y="463" as="sourcePoint"/>
                    </mxGeometry>
                </mxCell>
                <mxCell id="9YHOw0NfHvEYY-PrdQ5U-3" value="" style="endArrow=classic;startArrow=classic;html=1;rounded=0;dashed=1;strokeWidth=2;exitX=1;exitY=0.25;exitDx=0;exitDy=0;strokeColor=#009999;entryX=0;entryY=0.75;entryDx=0;entryDy=0;" parent="troMd9qhn7XEFZoUYkuW-42" source="troMd9qhn7XEFZoUYkuW-44" target="l-haFHgDrjRUKEXccmmC-0" edge="1">
                    <mxGeometry width="50" height="50" relative="1" as="geometry">
                        <mxPoint x="-685" y="357" as="sourcePoint"/>
                        <mxPoint x="-718.3140000000001" y="225.97000000000003" as="targetPoint"/>
                        <Array as="points">
                            <mxPoint x="-524" y="300"/>
                        </Array>
                    </mxGeometry>
                </mxCell>
                <mxCell id="aI5z4vZYZ7laRPrlgjQW-2" style="edgeStyle=none;html=1;dashed=1;fontColor=#FF8000;endArrow=none;endFill=0;" parent="troMd9qhn7XEFZoUYkuW-42" source="aI5z4vZYZ7laRPrlgjQW-3" edge="1">
                    <mxGeometry relative="1" as="geometry">
                        <mxPoint x="-692" y="356" as="targetPoint"/>
                    </mxGeometry>
                </mxCell>
                <mxCell id="aI5z4vZYZ7laRPrlgjQW-3" value="FW BGP Advertises&lt;br&gt;&lt;b&gt;10.0.0.0/22&lt;br&gt;Next Hop LBFW&lt;br&gt;&lt;/b&gt;" style="text;html=1;align=center;verticalAlign=middle;resizable=0;points=[];autosize=1;strokeColor=#d6b656;fillColor=#fff2cc;dashed=1;" parent="troMd9qhn7XEFZoUYkuW-42" vertex="1">
                    <mxGeometry x="-919" y="220" width="124" height="55" as="geometry"/>
                </mxCell>
                <object label="UDR" id="troMd9qhn7XEFZoUYkuW-51">
                    <mxCell style="" parent="troMd9qhn7XEFZoUYkuW-0"/>
                </object>
                <mxCell id="troMd9qhn7XEFZoUYkuW-52" value="RT-GatewaySubnet&lt;br&gt;10.0.1.0/24-&amp;gt;FW&lt;br&gt;10.0.2.0/24-&amp;gt;FW&lt;br&gt;10.0.0.0/24-&amp;gt;FW" style="aspect=fixed;html=1;points=[];align=center;image;fontSize=12;image=img/lib/azure2/networking/Route_Tables.svg;fontStyle=1" parent="troMd9qhn7XEFZoUYkuW-51" vertex="1">
                    <mxGeometry x="-459" y="497" width="29.94" height="29" as="geometry"/>
                </mxCell>
                <object label="er-sdwan" id="troMd9qhn7XEFZoUYkuW-35">
                    <mxCell style="" parent="troMd9qhn7XEFZoUYkuW-0"/>
                </object>
                <mxCell id="aI5z4vZYZ7laRPrlgjQW-8" value="" style="edgeStyle=none;orthogonalLoop=1;jettySize=auto;html=1;strokeColor=#FF3333;endArrow=none;endFill=0;strokeWidth=3;" parent="troMd9qhn7XEFZoUYkuW-35" edge="1">
                    <mxGeometry width="100" relative="1" as="geometry">
                        <mxPoint x="-525" y="594" as="sourcePoint"/>
                        <mxPoint x="-358" y="497" as="targetPoint"/>
                        <Array as="points"/>
                    </mxGeometry>
                </mxCell>
                <mxCell id="aI5z4vZYZ7laRPrlgjQW-9" value="" style="edgeStyle=none;orthogonalLoop=1;jettySize=auto;html=1;strokeColor=#FF3333;endArrow=none;endFill=0;strokeWidth=3;entryX=1.001;entryY=0.942;entryDx=0;entryDy=0;entryPerimeter=0;" parent="troMd9qhn7XEFZoUYkuW-35" target="troMd9qhn7XEFZoUYkuW-4" edge="1">
                    <mxGeometry width="100" relative="1" as="geometry">
                        <mxPoint x="-365" y="586" as="sourcePoint"/>
                        <mxPoint x="-489" y="479" as="targetPoint"/>
                        <Array as="points"/>
                    </mxGeometry>
                </mxCell>
                <mxCell id="aI5z4vZYZ7laRPrlgjQW-12" style="rounded=0;orthogonalLoop=1;jettySize=auto;html=1;exitX=0.25;exitY=1;exitDx=0;exitDy=0;startArrow=oval;startFill=1;endArrow=oval;endFill=1;strokeColor=#FF0000;entryX=0.381;entryY=-0.012;entryDx=0;entryDy=0;entryPerimeter=0;" parent="troMd9qhn7XEFZoUYkuW-35" source="troMd9qhn7XEFZoUYkuW-12" target="troMd9qhn7XEFZoUYkuW-7" edge="1">
                    <mxGeometry relative="1" as="geometry">
                        <mxPoint x="-629" y="743" as="targetPoint"/>
                        <mxPoint x="-765" y="742.5" as="sourcePoint"/>
                    </mxGeometry>
                </mxCell>
                <mxCell id="aI5z4vZYZ7laRPrlgjQW-13" style="rounded=0;orthogonalLoop=1;jettySize=auto;html=1;exitX=0;exitY=0.5;exitDx=0;exitDy=0;startArrow=oval;startFill=1;endArrow=oval;endFill=1;strokeColor=#FF0000;entryX=0.874;entryY=0.479;entryDx=0;entryDy=0;entryPerimeter=0;" parent="troMd9qhn7XEFZoUYkuW-35" source="troMd9qhn7XEFZoUYkuW-12" target="9YHOw0NfHvEYY-PrdQ5U-2" edge="1">
                    <mxGeometry relative="1" as="geometry">
                        <mxPoint x="-583.28" y="702.04" as="targetPoint"/>
                        <mxPoint x="-582.5" y="549" as="sourcePoint"/>
                        <Array as="points">
                            <mxPoint x="-723" y="389"/>
                        </Array>
                    </mxGeometry>
                </mxCell>
                <mxCell id="aI5z4vZYZ7laRPrlgjQW-14" style="rounded=0;orthogonalLoop=1;jettySize=auto;html=1;startArrow=oval;startFill=1;endArrow=oval;endFill=1;strokeColor=#FF0000;entryX=0.5;entryY=0;entryDx=0;entryDy=0;" parent="troMd9qhn7XEFZoUYkuW-35" target="troMd9qhn7XEFZoUYkuW-6" edge="1">
                    <mxGeometry relative="1" as="geometry">
                        <mxPoint x="-802" y="542" as="targetPoint"/>
                        <mxPoint x="-818" y="389" as="sourcePoint"/>
                    </mxGeometry>
                </mxCell>
                <mxCell id="aI5z4vZYZ7laRPrlgjQW-16" style="rounded=0;orthogonalLoop=1;jettySize=auto;html=1;startArrow=oval;startFill=1;endArrow=oval;endFill=1;strokeColor=#FF0000;entryX=0.5;entryY=0;entryDx=0;entryDy=0;" parent="troMd9qhn7XEFZoUYkuW-35" target="troMd9qhn7XEFZoUYkuW-31" edge="1">
                    <mxGeometry relative="1" as="geometry">
                        <mxPoint x="-867" y="374.5" as="targetPoint"/>
                        <mxPoint x="-819" y="389" as="sourcePoint"/>
                    </mxGeometry>
                </mxCell>
            </root>
        </mxGraphModel>
    </diagram>
</mxfile>